<?xml version="1.0" encoding="UTF-8" standalone="no"?>
<!DOCTYPE svg PUBLIC "-//W3C//DTD SVG 1.1//EN"
 "http://www.w3.org/Graphics/SVG/1.1/DTD/svg11.dtd">
<!-- Generated by graphviz version 2.50.0 (0)
 -->
<!-- Pages: 1 -->
<svg width="1790pt" height="945pt"
 viewBox="0.00 0.00 1790.00 945.00" xmlns="http://www.w3.org/2000/svg" xmlns:xlink="http://www.w3.org/1999/xlink">
<g id="graph0" class="graph" transform="scale(1 1) rotate(0) translate(4 941)">
<polygon fill="white" stroke="transparent" points="-4,4 -4,-941 1786,-941 1786,4 -4,4"/>
<!-- ClimateScenario -->
<g id="node1" class="node">
<title>ClimateScenario</title>
<polygon fill="transparent" stroke="black" stroke-width="2" points="1233.5,-937 542.5,-937 542.5,-720 1233.5,-720 1233.5,-937"/>
<image xlink:href="additional_figs/ClimateScenario_Base.png" width="691px" height="217px" preserveAspectRatio="xMinYMin meet" x="542.5" y="-937"/>
</g>
<!-- Recharge -->
<g id="node2" class="node">
<title>Recharge</title>
<polygon fill="transparent" stroke="black" stroke-width="2" points="1251,-577 525,-577 525,-360 1251,-360 1251,-577"/>
<image xlink:href="additional_figs/Recharge_Base.png" width="726px" height="217px" preserveAspectRatio="xMinYMin meet" x="525" y="-577"/>
</g>
<!-- ClimateScenario&#45;&gt;Recharge -->
<g id="edge1" class="edge">
<title>ClimateScenario&#45;&gt;Recharge</title>
<path fill="none" stroke="black" stroke-width="10" d="M888,-720C888,-678.12 888,-630.08 888,-587.28"/>
<polygon fill="black" stroke="black" stroke-width="10" points="896.75,-587.09 888,-577.09 879.25,-587.09 896.75,-587.09"/>
</g>
<!-- StreamFlow -->
<g id="node3" class="node">
<title>StreamFlow</title>
<polygon fill="transparent" stroke="black" stroke-width="2" points="696,-217 0,-217 0,0 696,0 696,-217"/>
<image xlink:href="additional_figs/StreamFlow_Base.png" width="696px" height="217px" preserveAspectRatio="xMinYMin meet" x="0" y="-217"/>
</g>
<!-- Recharge&#45;&gt;StreamFlow -->
<g id="edge2" class="edge">
<title>Recharge&#45;&gt;StreamFlow</title>
<path fill="none" stroke="black" stroke-width="10" d="M725.25,-360C660.18,-316.62 585.18,-266.62 519.29,-222.69"/>
<polygon fill="black" stroke="black" stroke-width="10" points="524.06,-215.35 510.88,-217.09 514.35,-229.92 524.06,-215.35"/>
</g>
<!-- Flux -->
<g id="node4" class="node">
<title>Flux</title>
<polygon fill="transparent" stroke="black" stroke-width="2" points="1782,-217 1074,-217 1074,0 1782,0 1782,-217"/>
<image xlink:href="additional_figs/Flux_Base.png" width="708px" height="217px" preserveAspectRatio="xMinYMin meet" x="1074" y="-217"/>
</g>
<!-- Recharge&#45;&gt;Flux -->
<g id="edge4" class="edge">
<title>Recharge&#45;&gt;Flux</title>
<path fill="none" stroke="black" stroke-width="10" d="M1050.75,-360C1115.82,-316.62 1190.82,-266.62 1256.71,-222.69"/>
<polygon fill="black" stroke="black" stroke-width="10" points="1261.65,-229.92 1265.12,-217.09 1251.94,-215.35 1261.65,-229.92"/>
</g>
<!-- StreamFlow&#45;&gt;Flux -->
<g id="edge3" class="edge">
<title>StreamFlow&#45;&gt;Flux</title>
<path fill="none" stroke="black" stroke-width="10" d="M696.04,-108.5C813.46,-108.5 944.8,-108.5 1063.46,-108.5"/>
<polygon fill="black" stroke="black" stroke-width="10" points="1063.8,-117.25 1073.8,-108.5 1063.8,-99.75 1063.8,-117.25"/>
</g>
</g>
</svg>
